<svg width="59" height="14" viewBox="0 0 59 14" fill="none" xmlns="http://www.w3.org/2000/svg">
<path fill-rule="evenodd" clip-rule="evenodd" d="M32.3526 9.82902C32.104 9.93771 31.7448 10.0192 31.2751 10.0192C30.1976 10.0192 29.5207 9.62523 29.5207 8.71495C29.5207 7.42426 30.6811 7.15253 32.3526 6.9895V9.82902ZM31.137 3.26687C29.6174 3.26687 28.4294 3.59294 27.8078 3.8239L28.3189 5.03308C28.8991 4.78853 29.8384 4.58473 30.6811 4.58473C31.6895 4.58473 32.3664 4.84287 32.3664 5.67163V6.05205C29.6174 6.26943 27.2552 6.81288 27.2552 8.81005C27.2552 10.3453 28.5675 11.2012 31.137 11.2012C32.6565 11.2012 33.886 10.9839 34.6319 10.6442V6.03846C34.6181 4.00053 33.1538 3.26687 31.137 3.26687ZM45.6003 3.8239V11.011C45.7385 11.011 47.9763 10.9703 47.9902 8.93233C47.9902 8.82364 47.9902 8.72854 48.004 8.64702V4.76135C48.4737 4.57115 49.3301 4.58473 49.9794 4.78853L50.4353 3.32121C50.2004 3.29404 49.7307 3.26687 49.3439 3.26687C47.6172 3.26687 46.4844 3.47066 45.6003 3.8239ZM41.4699 9.69316C41.2765 9.78826 40.9173 9.8562 40.5167 9.8562C39.1215 9.8562 38.5275 8.91874 38.5275 7.19329C38.5275 5.63087 39.1491 4.48963 40.6273 4.48963C40.945 4.48963 41.2213 4.5168 41.4699 4.57115V9.69316ZM41.4699 1.555V3.44349C41.1522 3.37556 40.6411 3.30763 40.0609 3.30763C37.7125 3.30763 36.0686 4.85646 36.0686 7.30198C36.0686 9.88337 37.6848 11.2148 40.4477 11.2148C41.9672 11.2148 43.0447 11.011 43.8459 10.6578V0.0605163C43.7907 0.0469301 41.5252 0.04693 41.4699 1.555ZM23.4563 5.25046V9.58447C23.1801 9.69316 22.7518 9.77468 22.2269 9.77468C21.2737 9.77468 20.8731 9.27199 20.8731 8.66061V3.47066C20.8731 3.47066 18.5109 3.48425 18.4694 5.26405V8.53833C18.4694 10.3181 19.6436 11.2148 22.1716 11.2148C23.8293 11.2148 25.1002 10.9839 25.86 10.6578V3.47066C25.86 3.45708 23.4978 3.47066 23.4563 5.25046ZM3.3292 9.91054C2.90096 9.91054 2.59705 9.8562 2.38984 9.76109V4.70701C2.67993 4.58473 3.01147 4.53039 3.46734 4.53039C4.82112 4.53039 5.33224 5.64446 5.33224 7.16612C5.33224 8.82364 4.68298 9.91054 3.3292 9.91054ZM4.17186 3.29404C3.35683 3.29404 2.80426 3.4299 2.38984 3.59294V2.13921C2.40365 -0.224795 0 0.00617134 0 0.00617134V10.6306C0.594006 10.9567 1.69913 11.1876 3.20487 11.1876C6.14727 11.1876 7.79115 9.63881 7.79115 7.01667C7.79115 4.80211 6.31304 3.29404 4.17186 3.29404ZM14.3667 9.69316C14.118 9.80185 13.745 9.88337 13.3168 9.88337C12.0597 9.88337 11.4104 8.94592 11.4104 7.27481C11.4104 5.46784 12.0873 4.47604 13.4135 4.47604C13.8279 4.47604 14.1456 4.54397 14.3667 4.63908V9.69316ZM8.95153 7.46502C8.95153 9.70675 10.4711 11.1741 12.6261 11.1741C13.3582 11.1741 13.9522 11.0654 14.3667 10.8887V12.0843C14.3667 14.0136 16.7427 14 16.7427 14V3.81032C16.1072 3.51142 14.9883 3.26687 13.5378 3.26687C10.2639 3.26687 8.95153 5.14177 8.95153 7.46502ZM54.9525 9.76109C53.723 9.76109 53.3362 8.59267 53.3362 7.20688C53.3362 5.82108 53.7092 4.59832 54.9525 4.59832C56.1957 4.59832 56.5411 5.82108 56.5411 7.20688C56.5411 8.59267 56.1819 9.76109 54.9525 9.76109ZM54.9525 3.26687C52.3002 3.26687 50.8911 4.93798 50.8911 7.23405C50.8911 9.53012 52.3002 11.2148 54.9525 11.2148C57.6048 11.2148 59 9.53012 59 7.23405C58.9862 4.92439 57.591 3.26687 54.9525 3.26687Z" fill="#9DB0BD"/>
</svg>
