<svg width="209" height="78" viewBox="0 0 209 78" fill="none" xmlns="http://www.w3.org/2000/svg">
<g clip-path="url(#clip0_308_319)">
<path d="M102.3 38.1062C102.3 39.4736 102.075 40.453 101.622 41.0426C101.146 41.6675 100.484 41.9817 99.6379 41.9817H91.7496C91.2497 41.9817 90.8407 41.8221 90.5226 41.5029C90.2029 41.1837 90.043 40.7755 90.043 40.2783V31.7614C90.043 30.4646 90.6758 29.8145 91.9414 29.8145H101.589V32.8382H94.7285C94.3919 32.8382 94.1832 32.8936 94.1024 33.0028C94.0217 33.1137 93.9813 33.3018 93.9813 33.5673V34.4357H99.6059C100.476 34.4357 101.144 34.7028 101.609 35.2354C102.068 35.7729 102.3 36.7288 102.3 38.1062ZM98.2612 37.9853C98.2612 37.6493 98.1703 37.4141 97.9919 37.2814C97.8118 37.1487 97.524 37.0815 97.1302 37.0815H93.9779V38.1583C93.9779 38.5413 94.0469 38.7782 94.1866 38.8706C94.2674 38.9294 94.4761 38.9579 94.8127 38.9579H97.1285C97.5695 38.9579 97.8691 38.8857 98.0256 38.7412C98.1821 38.5968 98.2612 38.3448 98.2612 37.9853Z" fill="#58595B"/>
<path d="M115.813 29.8159L109.247 41.9815H104.964L106.915 38.5226L102.039 29.8159H106.427L108.97 34.9949L111.53 29.8159H115.813Z" fill="#58595B"/>
<path d="M129.447 41.9832H114.855V38.9595H116.057L119.347 31.0507C119.731 30.1351 120.665 29.6782 122.151 29.6782C123.638 29.6782 124.572 30.1368 124.955 31.0507L128.229 38.9595H129.447V41.9832ZM124.292 38.9578L122.342 33.6746C122.261 33.4663 122.197 33.3622 122.15 33.3622C122.103 33.3622 122.039 33.4663 121.958 33.6746L120.007 38.9578H124.292Z" fill="#58595B"/>
<path d="M142.262 29.8159L135.697 41.9815H131.413L133.364 38.5226L128.488 29.8159H132.876L135.419 34.9949L137.979 29.8159H142.262Z" fill="#58595B"/>
<path d="M161.959 41.9832H144.267C143.674 41.9832 143.208 41.8236 142.865 41.5044C142.522 41.1852 142.352 40.7367 142.352 40.1571V29.8159H146.286V38.106C146.286 38.4302 146.335 38.6537 146.435 38.7746C146.534 38.8956 146.722 38.9577 147 38.9577H149.368V29.8159H153.303V38.9577H156.385V29.8159H160.32V38.9577H161.957V41.9832H161.959Z" fill="#58595B"/>
<path d="M173.031 41.9832H164.255C163.606 41.9832 163.112 41.8437 162.776 41.5665C162.404 41.2541 162.219 40.7434 162.219 40.0362V31.694C162.219 31.0909 162.392 30.6273 162.741 30.3031C163.089 29.9789 163.582 29.8159 164.22 29.8159H172.978V32.7708H166.953C166.686 32.7708 166.485 32.8262 166.352 32.9354C166.219 33.0463 166.152 33.2462 166.152 33.5351V34.4557H172.803V37.0981H166.152V38.4185C166.152 38.615 166.209 38.7662 166.327 38.8704C166.443 38.9745 166.692 39.0266 167.076 39.0266H173.031V41.9832Z" fill="#58595B"/>
<path d="M184.628 41.9832H175.853C175.203 41.9832 174.71 41.8437 174.373 41.5665C174.002 41.2541 173.816 40.7434 173.816 40.0362V31.694C173.816 31.0909 173.99 30.6273 174.338 30.3031C174.687 29.9789 175.18 29.8159 175.818 29.8159H184.576V32.7708H178.551C178.283 32.7708 178.083 32.8262 177.95 32.9354C177.817 33.0463 177.75 33.2462 177.75 33.5351V34.4557H184.401V37.0981H177.75V38.4185C177.75 38.615 177.807 38.7662 177.925 38.8704C178.041 38.9745 178.29 39.0266 178.674 39.0266H184.628V41.9832Z" fill="#58595B"/>
<path d="M106.949 62.8384H102.979L103.118 55.4336C103.118 55.1665 103.066 55.0338 102.962 55.0338C102.893 55.0338 102.81 55.1782 102.718 55.4689L100.838 61.3433C100.665 61.8876 100.454 62.2706 100.212 62.4907C99.8399 62.8149 99.266 62.9778 98.4884 62.9778C97.7109 62.9778 97.1353 62.8149 96.765 62.4907C96.521 62.2706 96.3123 61.8876 96.1389 61.3433L94.259 55.4689C94.1664 55.1799 94.0856 55.0338 94.0149 55.0338C93.9224 55.0338 93.8752 55.1665 93.8752 55.4336L93.9964 62.8384H90.043V52.6702C90.043 51.2457 91.041 50.5317 93.0388 50.5317C93.7473 50.5317 94.3162 50.6309 94.7454 50.8274C95.4068 51.1398 95.8763 51.7144 96.1557 52.5476L98.1232 58.4573C98.2511 58.8286 98.3723 59.0134 98.4884 59.0134C98.6045 59.0134 98.7257 58.8286 98.8536 58.4573L100.821 52.5476C101.1 51.7127 101.57 51.1398 102.231 50.8274C102.661 50.6309 103.235 50.5317 103.955 50.5317C105.951 50.5317 106.951 51.244 106.951 52.6702V62.8384H106.949Z" fill="#58595B"/>
<path d="M119.07 62.8384H110.294C109.645 62.8384 109.152 62.699 108.815 62.4218C108.443 62.1093 108.258 61.5987 108.258 60.8931V52.5509C108.258 51.9479 108.431 51.4842 108.78 51.16C109.128 50.8358 109.621 50.6729 110.259 50.6729H119.017V53.6277H112.992C112.725 53.6277 112.524 53.6832 112.391 53.7924C112.258 53.9032 112.191 54.1031 112.191 54.3921V55.3126H118.842V57.955H112.191V59.2754C112.191 59.472 112.248 59.6232 112.366 59.7273C112.482 59.8315 112.731 59.8835 113.115 59.8835H119.07V62.8384Z" fill="#58595B"/>
<path d="M134.01 62.8387H119.418V59.8149H120.62L123.91 51.9061C124.294 50.9906 125.228 50.5337 126.714 50.5337C128.2 50.5337 129.134 50.9923 129.518 51.9061L132.791 59.8149H134.01V62.8387ZM128.856 59.8149L126.906 54.5318C126.825 54.3235 126.761 54.2193 126.714 54.2193C126.667 54.2193 126.603 54.3235 126.522 54.5318L124.573 59.8149H128.856Z" fill="#58595B"/>
<path d="M147.539 62.8385H143.533L143.706 55.6957C143.718 55.395 143.659 55.2438 143.533 55.2438C143.464 55.2438 143.312 55.4403 143.08 55.8351L139.615 61.7449C139.127 62.568 138.25 62.9796 136.986 62.9796C135.907 62.9796 135.151 62.6721 134.722 62.059C134.421 61.6189 134.27 60.952 134.27 60.06V50.6746H138.275L138.102 57.6443V57.8358C138.102 58.1147 138.171 58.2524 138.31 58.2524C138.379 58.2524 138.496 58.108 138.659 57.8173L142.02 51.9597C142.565 51.0106 143.442 50.5352 144.649 50.5352C146.576 50.5352 147.539 51.538 147.539 53.5421V62.8385Z" fill="#58595B"/>
<path d="M162.81 62.8384H151.212C150.771 62.8384 150.468 62.8266 150.306 62.8031C149.981 62.746 149.702 62.6066 149.47 62.3865C149.052 62.0035 148.844 61.4139 148.844 60.6143V50.6729H152.779V58.6858C152.779 59.1847 152.836 59.4972 152.954 59.6248C153.07 59.7525 153.331 59.8163 153.738 59.8163H157.239V50.6745H161.174V59.8163H162.811V62.8384H162.81Z" fill="#58595B"/>
<path d="M176.339 62.8385H172.334L172.507 55.6957C172.519 55.395 172.46 55.2438 172.334 55.2438C172.265 55.2438 172.113 55.4403 171.881 55.8351L168.416 61.7449C167.928 62.568 167.051 62.9796 165.787 62.9796C164.708 62.9796 163.952 62.6721 163.523 62.059C163.222 61.6189 163.07 60.952 163.07 60.06V50.6746H167.076L166.903 57.6443V57.8358C166.903 58.1147 166.972 58.2524 167.111 58.2524C167.18 58.2524 167.296 58.108 167.46 57.8173L170.821 51.9597C171.366 51.0106 172.243 50.5352 173.45 50.5352C175.377 50.5352 176.339 51.538 176.339 53.5421V62.8385Z" fill="#58595B"/>
<path d="M189.941 62.8384H186.006V58.0071H181.583V62.8384H177.648V50.6729H181.583V54.9834H186.006V50.6729H189.941V62.8384Z" fill="#58595B"/>
<path d="M203.556 59.015C203.556 60.2094 203.364 61.0897 202.982 61.6575C202.448 62.4453 201.635 62.8401 200.543 62.8401H192.986C192.51 62.8401 192.101 62.6469 191.759 62.2572C191.416 61.8691 191.246 61.298 191.246 60.5454V50.6729H195.181V55.0707H200.649C201.834 55.0707 202.645 55.5344 203.088 56.4617C203.399 57.1084 203.556 57.9601 203.556 59.015ZM199.517 58.7362C199.517 58.2843 199.36 58.0004 199.047 57.8845C198.931 57.8391 198.594 57.8156 198.037 57.8156H195.181V59.0839C195.181 59.351 195.216 59.5308 195.285 59.6231C195.378 59.7508 195.593 59.8147 195.93 59.8147H197.966C198.616 59.8147 199 59.7794 199.116 59.7105C199.382 59.5593 199.517 59.2351 199.517 58.7362ZM208.605 62.8384H204.67V50.6729H208.605V62.8384Z" fill="#58595B"/>
<path d="M96.6506 17.9644C96.3494 18.8413 96.1238 19.1336 95.3951 19.1336C94.7168 19.1336 94.4543 18.8833 94.1395 17.9644L91.8927 11.465C91.8557 11.3542 91.7547 11.1442 91.679 11.1442C91.541 11.1442 91.5409 11.3945 91.5409 11.4365L91.578 19.0211H89.9219V10.447C89.9219 9.18043 91.0882 9.16699 91.3407 9.16699C91.9802 9.16699 92.507 9.3333 92.884 10.4202L95.1561 16.9195C95.2318 17.1279 95.3194 17.2807 95.3951 17.2807C95.4708 17.2807 95.5583 17.1279 95.6341 16.9195L97.9062 10.4202C98.2832 9.33498 98.81 9.16699 99.4495 9.16699C100.266 9.16699 100.868 9.55672 100.868 10.447V19.0211H99.2122L99.2627 11.4365C99.2627 11.1727 99.1617 11.1442 99.1129 11.1442C99.0254 11.1442 98.9379 11.3525 98.8992 11.465L96.6506 17.9644Z" fill="#1D99D6"/>
<path d="M109.578 10.2693C109.891 9.4478 110.231 9.16895 111.02 9.16895C111.773 9.16895 112.15 9.4478 112.463 10.2693L115.776 19.023H114.033L113.129 16.5603H108.9L108.009 19.023H106.266L109.578 10.2693ZM109.327 15.2517H112.703L111.273 11.2856C111.222 11.1461 111.135 10.8824 111.022 10.8824C110.909 10.8824 110.822 11.1461 110.771 11.2856L109.327 15.2517Z" fill="#1D99D6"/>
<path d="M126.692 9.27979C127.169 9.27979 127.822 9.33522 128.286 9.86438C128.776 10.4204 128.838 11.3124 128.838 11.9524C128.838 12.4816 128.813 13.0242 128.424 13.5382C128.173 13.8725 127.923 14.012 127.596 14.0388V14.0943C128.01 14.1363 128.348 14.3446 128.562 14.61C128.976 15.1106 128.976 15.8077 128.976 16.3503C128.976 16.9903 128.976 17.7698 128.475 18.3964C127.973 19.023 127.408 19.023 126.869 19.023H122.665C122.225 19.023 121.823 19.0784 121.473 18.6333C121.386 18.5224 121.172 18.2015 121.172 17.6455V10.6858C121.172 10.3247 121.259 9.93493 121.448 9.68295C121.712 9.33522 122.101 9.27979 122.377 9.27979H126.692ZM126.041 13.3719C126.367 13.3719 126.719 13.3719 126.945 13.0242C127.007 12.9402 127.133 12.7033 127.133 12.0364C127.133 11.7727 127.121 11.2855 126.844 10.9932C126.605 10.7429 126.303 10.7429 126.027 10.7429H123.316C123.178 10.7429 123.04 10.7295 122.939 10.8538C122.838 10.9781 122.826 11.1747 122.826 11.2855V13.3736H126.041V13.3719ZM122.828 16.8375C122.828 17.1583 122.865 17.3246 122.929 17.4086C123.067 17.5749 123.343 17.5615 123.469 17.5615H126.08C126.344 17.5615 126.795 17.5481 127.046 17.2138C127.234 16.9635 127.271 16.5317 127.271 16.226C127.271 15.9472 127.246 15.502 127.083 15.2383C126.982 15.0854 126.731 14.8351 126.192 14.8351H122.83V16.8375H122.828Z" fill="#1D99D6"/>
<path fill-rule="evenodd" clip-rule="evenodd" d="M44.8173 0.426592C57.0934 2.24252 67.1848 9.57175 72.9458 19.5249C67.4373 10.6771 58.2159 4.21132 47.0827 2.56505C26.9856 -0.406619 8.28042 13.4438 5.30314 33.5047C2.32586 53.5656 16.2024 72.2339 36.3012 75.2056C52.5509 77.6095 67.89 69.0103 74.7416 55.0254C67.752 70.554 51.0647 80.2233 33.3609 77.6061C12.0083 74.448 -2.7367 54.6122 0.427399 33.2998C3.5915 11.9857 23.4647 -2.73155 44.8173 0.426592Z" fill="#1D99D6"/>
<path fill-rule="evenodd" clip-rule="evenodd" d="M53.0223 55.5868H54.054V59.4639C54.054 59.7495 53.9396 60.0183 53.7376 60.2198C53.5356 60.4214 53.2664 60.5357 52.9802 60.5357H45.3023C45.0161 60.5357 44.7469 60.4214 44.5449 60.2198C44.3429 60.0183 44.2285 59.7495 44.2285 59.4639V18.5694C44.2285 18.2838 44.3429 18.015 44.5449 17.8135C44.7469 17.6119 45.0161 17.4976 45.3023 17.4976H52.9802C53.2664 17.4976 53.5356 17.6119 53.7376 17.8135C53.9396 18.015 54.054 18.2838 54.054 18.5694V22.4465H51.5547C50.5584 22.4465 49.6074 22.843 48.9039 23.5451C48.2004 24.2473 47.8032 25.1964 47.8032 26.1909V29.1643C47.1014 29.6078 46.6352 30.3889 46.6352 31.2792C46.6352 32.6617 47.7578 33.7822 49.1429 33.7822C50.5281 33.7822 51.6507 32.6617 51.6507 31.2792C51.6507 30.3889 51.1845 29.6078 50.4826 29.1643V26.1909C50.4826 25.9053 50.5971 25.6366 50.799 25.435C51.001 25.2334 51.2703 25.1192 51.5564 25.1192H54.0557H56.7334H60.702C60.9881 25.1192 61.2574 25.2334 61.4594 25.435C61.6613 25.6366 61.7758 25.9053 61.7758 26.1909V29.942H61.6849C60.6885 29.942 59.7376 30.3385 59.0341 31.0407C58.3306 31.7429 57.9334 32.692 57.9334 33.6865V36.9C57.2316 37.3435 56.7654 38.1246 56.7654 39.015C56.7654 40.3975 57.888 41.518 59.2731 41.518C60.6582 41.518 61.7808 40.3975 61.7808 39.015C61.7808 38.1246 61.3146 37.3435 60.6128 36.9V33.6865C60.6128 33.4009 60.7272 33.1321 60.9292 32.9305C61.1312 32.7289 61.4004 32.6147 61.6866 32.6147H64.7076H65.8235C66.1096 32.6147 66.3789 32.7289 66.5808 32.9305C66.7828 33.1321 66.8972 33.4009 66.8972 33.6865V44.3452C66.8972 44.6307 66.7828 44.8995 66.5808 45.1011C66.3789 45.3027 66.1096 45.4169 65.8235 45.4169H64.4568H61.7791H59.4262H54.2375H53.0274H51.5581C51.272 45.4169 51.0027 45.3027 50.8007 45.1011C50.5988 44.8995 50.4843 44.6307 50.4843 44.3452V41.1316C51.1861 40.6881 51.6523 39.907 51.6523 39.0166C51.6523 37.6341 50.5297 36.5137 49.1446 36.5137C47.7595 36.5137 46.6369 37.6341 46.6369 39.0166C46.6369 39.907 47.1031 40.6881 47.8049 41.1316V44.3452C47.8049 45.3396 48.2021 46.2888 48.9056 46.9909C49.6091 47.6931 50.56 48.0896 51.5564 48.0896H53.0257H54.2358H61.7774V51.8407C61.7774 52.1263 61.663 52.3951 61.461 52.5966C61.2591 52.7982 60.9898 52.9125 60.7037 52.9125H56.8647H56.7351H54.0574H53.0257H51.2635C50.8192 52.212 50.0366 51.7466 49.1446 51.7466C47.7595 51.7466 46.6369 52.8671 46.6369 54.2496C46.6369 55.6321 47.7595 56.7526 49.1446 56.7526C50.0366 56.7526 50.8192 56.2873 51.2635 55.5868H53.0223ZM56.7317 55.5868H60.7003C61.6967 55.5868 62.6476 55.1903 63.3511 54.4882C64.0546 53.786 64.4518 52.8369 64.4518 51.8424V48.0913H65.8184C66.8148 48.0913 67.7657 47.6948 68.4692 46.9926C69.1727 46.2904 69.5699 45.3413 69.5699 44.3468V33.6881C69.5699 32.6937 69.1727 31.7445 68.4692 31.0424C67.7657 30.3402 66.8148 29.9437 65.8184 29.9437H64.7026H64.4518V26.1926C64.4518 25.1981 64.0546 24.249 63.3511 23.5468C62.6476 22.8446 61.6967 22.4482 60.7003 22.4482H56.7317V18.5711C56.7317 17.5766 56.3345 16.6275 55.631 15.9253C54.9275 15.2231 53.9766 14.8267 52.9802 14.8267H45.3023C44.3059 14.8267 43.355 15.2231 42.6515 15.9253C41.948 16.6275 41.5508 17.5766 41.5508 18.5711V59.4656C41.5508 60.4601 41.948 61.4092 42.6515 62.1114C43.355 62.8135 44.3059 63.21 45.3023 63.21H52.9802C53.9766 63.21 54.9275 62.8135 55.631 62.1114C56.3345 61.4092 56.7317 60.4601 56.7317 59.4656V55.5868Z" fill="#F36F27"/>
<path d="M32.6842 37.2493C34.4935 38.1312 36.5989 37.97 37.7451 37.3535C38.4267 36.9872 38.7599 36.49 38.7364 35.8752L38.7902 35.8735V16.8457C37.4287 14.9038 35.0135 13.7061 32.4166 13.7061C29.2138 13.7061 26.4183 15.5169 25.3748 18.0871C26.1204 18.2148 26.8441 18.4449 27.5156 18.786C27.7176 18.8884 27.9145 18.9993 28.1013 19.1186C29.3333 18.2971 30.8396 17.8822 32.4048 17.946C34.1787 18.0183 35.8129 18.6936 37.0096 19.8476C37.4539 20.276 37.8225 20.7581 38.1036 21.2789L35.4191 22.4027C35.2643 22.1154 35.0606 21.85 34.8149 21.6115C34.1535 20.9731 33.2497 20.6002 32.2702 20.5599C31.4909 20.5296 30.7386 20.7144 30.0991 21.084C30.3818 21.5258 30.6107 21.9995 30.7655 22.5018C31.2486 24.0826 31.0045 25.7322 30.0772 27.1517C29.9897 27.2844 29.8988 27.4137 29.8028 27.538L27.3439 26.0681C27.3995 25.9959 27.4517 25.922 27.5021 25.8464C28.0323 25.0334 28.1737 24.0876 27.896 23.1838C27.62 22.2784 26.9585 21.5224 26.0362 21.0554C25.1695 20.617 24.1563 20.4809 23.1835 20.6708C20.7431 21.3192 19.0281 23.3065 19.0281 25.5961C19.0281 25.8078 19.05 26.0396 19.0954 26.3268L19.2721 27.4389L18.0502 27.7614C14.701 28.6451 12.3633 31.4151 12.3633 34.496C12.3633 36.3388 13.1695 38.0825 14.6337 39.4046L14.7868 39.544C15.4045 39.4701 15.9919 39.2584 16.5019 38.9191C17.2845 38.3966 17.7877 37.639 17.9223 36.7823C17.9728 36.4631 17.9695 36.1423 17.9122 35.8281L20.8474 35.4149C20.9518 35.9844 20.9585 36.5656 20.8676 37.1401C20.6253 38.6873 19.7131 40.0597 18.2976 41.0038C17.1313 41.7832 15.7378 42.1931 14.2988 42.1931C14.1204 42.1931 13.9403 42.1847 13.7602 42.1713C12.8547 43.3321 12.365 44.7045 12.365 46.1391C12.365 48.9882 14.2954 51.5365 17.2811 52.6318L18.5063 53.0803L18.1378 54.2024C18.0048 54.6073 17.9375 55.0172 17.9375 55.4237C17.9375 57.841 20.1709 59.8081 22.9159 59.8081C23.0455 59.8081 23.1869 59.8014 23.3653 59.788L24.0738 59.7326C26.908 59.0505 28.7796 56.5795 28.3167 53.9605C27.9549 51.9044 26.2382 50.2481 23.9459 49.7424L24.6696 47.2042C27.2867 47.782 29.4023 49.3561 30.5114 51.4324C32.2567 50.9586 33.3726 49.4014 33.046 47.7787C32.9821 47.4612 32.8676 47.1571 32.7027 46.8749L35.3501 45.6856C35.648 46.1996 35.8567 46.7506 35.9728 47.3217C36.5703 50.2817 34.5136 53.124 31.3108 53.9538C31.7198 57.411 29.4578 60.6346 25.9285 61.9332C27.423 63.44 29.5874 64.3303 31.9285 64.3303C34.7526 64.3303 37.358 63.0133 38.7936 60.8799V39.8279C37.7855 40.2663 36.6259 40.4864 35.4393 40.4864C34.0104 40.4864 32.5411 40.1706 31.2469 39.5373C29.6564 38.7612 26.9821 36.8226 26.9366 32.5625L29.9089 32.5373C29.9341 35.3259 31.432 36.6395 32.6842 37.2493Z" fill="#1D99D6"/>
</g>
<defs>
<clipPath id="clip0_308_319">
<rect width="209" height="78" fill="white"/>
</clipPath>
</defs>
</svg>
