<svg width="120" height="54" viewBox="0 0 120 54" fill="none" xmlns="http://www.w3.org/2000/svg">
<g id="Group">
<g id="Group_2">
<g id="Group_3">
<g id="Group_4">
<path id="Vector" d="M13.3005 29.1062C13.3005 30.4736 13.075 31.453 12.6222 32.0426C12.1459 32.6675 11.4845 32.9817 10.6379 32.9817H2.74955C2.24969 32.9817 1.84072 32.8221 1.52263 32.5029C1.20285 32.1837 1.04297 31.7755 1.04297 31.2783V22.7614C1.04297 21.4646 1.67578 20.8145 2.94142 20.8145H12.5886V23.8382H5.72852C5.39191 23.8382 5.18322 23.8936 5.10244 24.0028C5.02165 24.1137 4.98125 24.3018 4.98125 24.5673V25.4357H10.6059C11.4761 25.4357 12.1442 25.7028 12.6088 26.2354C13.0682 26.7729 13.3005 27.7288 13.3005 29.1062ZM9.2612 28.9853C9.2612 28.6493 9.17032 28.4141 8.99192 28.2814C8.81183 28.1487 8.52404 28.0815 8.13021 28.0815H4.97788V29.1583C4.97788 29.5413 5.0469 29.7782 5.18659 29.8706C5.26737 29.9294 5.47607 29.9579 5.81267 29.9579H8.12852C8.56948 29.9579 8.86906 29.8857 9.02558 29.7412C9.1821 29.5968 9.2612 29.3448 9.2612 28.9853Z" fill="#58595B"/>
<path id="Vector_2" d="M26.813 20.8159L20.2475 32.9815H15.9642L17.9148 29.5226L13.0391 20.8159H17.4267L19.9698 25.9949L22.5297 20.8159H26.813Z" fill="#58595B"/>
<path id="Vector_3" d="M40.4473 32.9832H25.8555V29.9595H27.0571L30.3475 22.0507C30.7312 21.1351 31.6653 20.6782 33.1514 20.6782C34.6375 20.6782 35.5716 21.1368 35.9553 22.0507L39.2288 29.9595H40.4473V32.9832ZM35.2922 29.9578L33.3416 24.6746C33.2608 24.4663 33.1968 24.3622 33.1497 24.3622C33.1026 24.3622 33.0386 24.4663 32.9578 24.6746L31.0072 29.9578H35.2922Z" fill="#58595B"/>
<path id="Vector_4" d="M53.2622 20.8159L46.6967 32.9815H42.4134L44.364 29.5226L39.4883 20.8159H43.8759L46.419 25.9949L48.9789 20.8159H53.2622Z" fill="#58595B"/>
<path id="Vector_5" d="M72.9589 32.9832H55.2669C54.6744 32.9832 54.2082 32.8236 53.8649 32.5044C53.5215 32.1852 53.3516 31.7367 53.3516 31.1571V20.8159H57.2865V29.106C57.2865 29.4302 57.3353 29.6537 57.4346 29.7746C57.5339 29.8956 57.7224 29.9577 58.0001 29.9577H60.3681V20.8159H64.303V29.9577H67.3847V20.8159H71.3196V29.9577H72.9572V32.9832H72.9589Z" fill="#58595B"/>
<path id="Vector_6" d="M84.0306 32.9832H75.2552C74.6056 32.9832 74.1124 32.8437 73.7758 32.5665C73.4039 32.2541 73.2188 31.7434 73.2188 31.0362V22.694C73.2188 22.0909 73.3921 21.6273 73.7405 21.3031C74.0889 20.9789 74.582 20.8159 75.2199 20.8159H83.9784V23.7708H77.9531C77.6855 23.7708 77.4852 23.8262 77.3523 23.9354C77.2193 24.0463 77.152 24.2462 77.152 24.5351V25.4557H83.8033V28.0981H77.152V29.4185C77.152 29.615 77.2092 29.7662 77.327 29.8704C77.4432 29.9745 77.6923 30.0266 78.076 30.0266H84.0306V32.9832Z" fill="#58595B"/>
<path id="Vector_7" d="M95.6282 32.9832H86.8529C86.2032 32.9832 85.7101 32.8437 85.3735 32.5665C85.0015 32.2541 84.8164 31.7434 84.8164 31.0362V22.694C84.8164 22.0909 84.9898 21.6273 85.3381 21.3031C85.6865 20.9789 86.1797 20.8159 86.8175 20.8159H95.576V23.7708H89.5508C89.2832 23.7708 89.0829 23.8262 88.9499 23.9354C88.817 24.0463 88.7496 24.2462 88.7496 24.5351V25.4557H95.401V28.0981H88.7496V29.4185C88.7496 29.615 88.8069 29.7662 88.9247 29.8704C89.0408 29.9745 89.2899 30.0266 89.6736 30.0266H95.6282V32.9832Z" fill="#58595B"/>
<path id="Vector_8" d="M17.949 53.8384H13.9787L14.1184 46.4336C14.1184 46.1665 14.0663 46.0338 13.9619 46.0338C13.8929 46.0338 13.8104 46.1782 13.7179 46.4689L11.8379 52.3433C11.6646 52.8876 11.4542 53.2706 11.2118 53.4907C10.8399 53.8149 10.266 53.9778 9.48841 53.9778C8.71086 53.9778 8.13526 53.8149 7.76499 53.4907C7.52095 53.2706 7.31225 52.8876 7.1389 52.3433L5.25896 46.4689C5.16639 46.1799 5.0856 46.0338 5.01492 46.0338C4.92235 46.0338 4.87522 46.1665 4.87522 46.4336L4.99641 53.8384H1.04297V43.6702C1.04297 42.2457 2.041 41.5317 4.03876 41.5317C4.74732 41.5317 5.31618 41.6309 5.74536 41.8274C6.40679 42.1398 6.87634 42.7144 7.15573 43.5476L9.12319 49.4573C9.2511 49.8286 9.37229 50.0134 9.48841 50.0134C9.60454 50.0134 9.72572 49.8286 9.85363 49.4573L11.8211 43.5476C12.1005 42.7127 12.57 42.1398 13.2315 41.8274C13.6606 41.6309 14.2346 41.5317 14.9549 41.5317C16.951 41.5317 17.9507 42.244 17.9507 43.6702V53.8384H17.949Z" fill="#58595B"/>
<path id="Vector_9" d="M30.0696 53.8384H21.2943C20.6446 53.8384 20.1515 53.699 19.8149 53.4218C19.4429 53.1093 19.2578 52.5987 19.2578 51.8931V43.5509C19.2578 42.9479 19.4312 42.4842 19.7795 42.16C20.1279 41.8358 20.6211 41.6729 21.2589 41.6729H30.0174V44.6277H23.9922C23.7246 44.6277 23.5243 44.6832 23.3913 44.7924C23.2584 44.9032 23.1911 45.1031 23.1911 45.3921V46.3126H29.8424V48.955H23.1911V50.2754C23.1911 50.472 23.2483 50.6232 23.3661 50.7273C23.4822 50.8315 23.7313 50.8835 24.115 50.8835H30.0696V53.8384Z" fill="#58595B"/>
<path id="Vector_10" d="M45.0098 53.8387H30.418V50.8149H31.6197L34.91 42.9061C35.2937 41.9906 36.2278 41.5337 37.7139 41.5337C39.2 41.5337 40.1341 41.9923 40.5178 42.9061L43.7913 50.8149H45.0098V53.8387ZM39.8564 50.8149L37.9058 45.5318C37.825 45.3235 37.761 45.2193 37.7139 45.2193C37.6668 45.2193 37.6028 45.3235 37.522 45.5318L35.5731 50.8149H39.8564Z" fill="#58595B"/>
<path id="Vector_11" d="M58.5386 53.8385H54.5329L54.7063 46.6957C54.7181 46.395 54.6592 46.2438 54.5329 46.2438C54.4639 46.2438 54.3125 46.4403 54.0802 46.8351L50.6148 52.7449C50.1268 53.568 49.2499 53.9796 47.9859 53.9796C46.9071 53.9796 46.1514 53.6721 45.7223 53.059C45.421 52.6189 45.2695 51.952 45.2695 51.06V41.6746H49.2751L49.1018 48.6443V48.8358C49.1018 49.1147 49.1708 49.2524 49.3105 49.2524C49.3795 49.2524 49.4956 49.108 49.6589 48.8173L53.0199 42.9597C53.5652 42.0106 54.442 41.5352 55.6488 41.5352C57.5758 41.5352 58.5386 42.538 58.5386 44.5421V53.8385Z" fill="#58595B"/>
<path id="Vector_12" d="M73.8095 53.8384H62.2118C61.7708 53.8384 61.4679 53.8266 61.3063 53.8031C60.9815 53.746 60.7021 53.6066 60.4698 53.3865C60.0525 53.0035 59.8438 52.4139 59.8438 51.6143V41.6729H63.7787V49.6858C63.7787 50.1847 63.8359 50.4972 63.9537 50.6248C64.0698 50.7525 64.3307 50.8163 64.738 50.8163H68.2387V41.6745H72.1736V50.8163H73.8112V53.8384H73.8095Z" fill="#58595B"/>
<path id="Vector_13" d="M87.3393 53.8385H83.3337L83.5071 46.6957C83.5188 46.395 83.4599 46.2438 83.3337 46.2438C83.2647 46.2438 83.1132 46.4403 82.881 46.8351L79.4156 52.7449C78.9275 53.568 78.0507 53.9796 76.7867 53.9796C75.7079 53.9796 74.9522 53.6721 74.523 53.059C74.2218 52.6189 74.0703 51.952 74.0703 51.06V41.6746H78.0759L77.9026 48.6443V48.8358C77.9026 49.1147 77.9716 49.2524 78.1113 49.2524C78.1803 49.2524 78.2964 49.108 78.4596 48.8173L81.8207 42.9597C82.366 42.0106 83.2428 41.5352 84.4496 41.5352C86.3766 41.5352 87.3393 42.538 87.3393 44.5421V53.8385Z" fill="#58595B"/>
<path id="Vector_14" d="M100.941 53.8384H97.0064V49.0071H92.5834V53.8384H88.6484V41.6729H92.5834V45.9834H97.0064V41.6729H100.941V53.8384Z" fill="#58595B"/>
<path id="Vector_15" d="M114.556 50.015C114.556 51.2094 114.364 52.0897 113.982 52.6575C113.448 53.4453 112.635 53.8401 111.543 53.8401H103.986C103.51 53.8401 103.101 53.6469 102.759 53.2572C102.416 52.8691 102.246 52.298 102.246 51.5454V41.6729H106.181V46.0707H111.649C112.834 46.0707 113.645 46.5344 114.088 47.4617C114.399 48.1084 114.556 48.9601 114.556 50.015ZM110.517 49.7362C110.517 49.2843 110.36 49.0004 110.047 48.8845C109.931 48.8391 109.594 48.8156 109.037 48.8156H106.181V50.0839C106.181 50.351 106.216 50.5308 106.285 50.6231C106.378 50.7508 106.593 50.8147 106.93 50.8147H108.966C109.616 50.8147 110 50.7794 110.116 50.7105C110.382 50.5593 110.517 50.2351 110.517 49.7362ZM119.605 53.8384H115.67V41.6729H119.605V53.8384Z" fill="#58595B"/>
</g>
</g>
</g>
<g id="Group_5">
<path id="Vector_16" d="M7.65063 8.96442C7.34937 9.84131 7.12385 10.1336 6.39509 10.1336C5.71683 10.1336 5.45428 9.8833 5.13955 8.96442L2.89271 2.46504C2.85568 2.35417 2.7547 2.14419 2.67896 2.14419C2.54095 2.14419 2.54095 2.39449 2.54095 2.43648L2.57798 10.0211H0.921875V1.44705C0.921875 0.18043 2.08821 0.166992 2.34067 0.166992C2.98022 0.166992 3.50701 0.333297 3.88401 1.42017L6.1561 7.91955C6.23183 8.12785 6.31936 8.28072 6.39509 8.28072C6.47083 8.28072 6.55835 8.12785 6.63408 7.91955L8.90617 1.42017C9.28317 0.334977 9.80996 0.166992 10.4495 0.166992C11.2658 0.166992 11.8683 0.556719 11.8683 1.44705V10.0211H10.2122L10.2627 2.43648C10.2627 2.17274 10.1617 2.14419 10.1129 2.14419C10.0254 2.14419 9.93787 2.35249 9.89917 2.46504L7.65063 8.96442Z" fill="#1D99D6"/>
<path id="Vector_17" d="M20.5778 1.26925C20.8909 0.447803 21.2308 0.168945 22.0202 0.168945C22.7725 0.168945 23.1495 0.447803 23.4625 1.26925L26.7764 10.023H25.0328L24.129 7.56033H19.8996L19.0093 10.023H17.2656L20.5778 1.26925ZM20.3271 6.25172H23.7032L22.2726 2.28557C22.2222 2.14614 22.1346 1.8824 22.0219 1.8824C21.9091 1.8824 21.8216 2.14614 21.7711 2.28557L20.3271 6.25172Z" fill="#1D99D6"/>
<path id="Vector_18" d="M37.6922 0.279785C38.1685 0.279785 38.8215 0.33522 39.286 0.864376C39.7758 1.42041 39.8381 2.31242 39.8381 2.95244C39.8381 3.4816 39.8128 4.0242 39.4241 4.53823C39.1733 4.87252 38.9225 5.01195 38.596 5.03883V5.09427C39.01 5.13626 39.3483 5.34456 39.5621 5.60998C39.9761 6.11058 39.9761 6.80772 39.9761 7.35032C39.9761 7.99034 39.9761 8.7698 39.4745 9.39639C38.973 10.023 38.4075 10.023 37.8689 10.023H33.6647C33.2255 10.023 32.8232 10.0784 32.4731 9.63325C32.3856 9.52238 32.1719 9.20152 32.1719 8.64549V1.68583C32.1719 1.32466 32.2594 0.93493 32.4479 0.682951C32.7121 0.33522 33.1009 0.279785 33.3769 0.279785H37.6922ZM37.0409 4.37193C37.3674 4.37193 37.7191 4.37192 37.9447 4.02419C38.0069 3.9402 38.1332 3.70334 38.1332 3.03644C38.1332 2.7727 38.1214 2.28554 37.8437 1.99324C37.6047 1.74294 37.3034 1.74294 37.0274 1.74294H34.3161C34.178 1.74294 34.04 1.7295 33.9391 1.85381C33.8381 1.97812 33.8263 2.17467 33.8263 2.28554V4.3736H37.0409V4.37193ZM33.828 7.83748C33.828 8.15833 33.865 8.32464 33.929 8.40863C34.067 8.57494 34.343 8.5615 34.4692 8.5615H37.0796C37.3438 8.5615 37.7949 8.54806 38.0457 8.21377C38.2342 7.96347 38.2712 7.53174 38.2712 7.22601C38.2712 6.94715 38.2459 6.50199 38.0827 6.23825C37.9817 6.08538 37.7309 5.83508 37.1924 5.83508H33.8297V7.83748H33.828Z" fill="#1D99D6"/>
</g>
</g>
</svg>
