<svg width="75" height="78" viewBox="0 0 75 78" fill="none" xmlns="http://www.w3.org/2000/svg">
<g id="Group">
<path id="Vector" fill-rule="evenodd" clip-rule="evenodd" d="M44.8173 0.426592C57.0934 2.24252 67.1848 9.57175 72.9458 19.5249C67.4373 10.6771 58.2159 4.21132 47.0827 2.56505C26.9856 -0.406619 8.28042 13.4438 5.30314 33.5047C2.32586 53.5656 16.2024 72.2339 36.3012 75.2056C52.5509 77.6095 67.89 69.0103 74.7416 55.0254C67.752 70.554 51.0647 80.2233 33.3609 77.6061C12.0083 74.448 -2.7367 54.6122 0.427399 33.2998C3.5915 11.9857 23.4647 -2.73155 44.8173 0.426592Z" fill="#1D99D6"/>
<g id="Group_2">
<path id="Vector_2" fill-rule="evenodd" clip-rule="evenodd" d="M53.0223 55.5868H54.054V59.4639C54.054 59.7495 53.9396 60.0183 53.7376 60.2198C53.5356 60.4214 53.2664 60.5357 52.9802 60.5357H45.3023C45.0161 60.5357 44.7469 60.4214 44.5449 60.2198C44.3429 60.0183 44.2285 59.7495 44.2285 59.4639V18.5694C44.2285 18.2838 44.3429 18.015 44.5449 17.8135C44.7469 17.6119 45.0161 17.4976 45.3023 17.4976H52.9802C53.2664 17.4976 53.5356 17.6119 53.7376 17.8135C53.9396 18.015 54.054 18.2838 54.054 18.5694V22.4465H51.5547C50.5584 22.4465 49.6074 22.843 48.9039 23.5451C48.2004 24.2473 47.8032 25.1964 47.8032 26.1909V29.1643C47.1014 29.6078 46.6352 30.3889 46.6352 31.2792C46.6352 32.6617 47.7578 33.7822 49.1429 33.7822C50.5281 33.7822 51.6507 32.6617 51.6507 31.2792C51.6507 30.3889 51.1845 29.6078 50.4826 29.1643V26.1909C50.4826 25.9053 50.5971 25.6366 50.799 25.435C51.001 25.2334 51.2703 25.1192 51.5564 25.1192H54.0557H56.7334H60.702C60.9881 25.1192 61.2574 25.2334 61.4594 25.435C61.6613 25.6366 61.7758 25.9053 61.7758 26.1909V29.942H61.6849C60.6885 29.942 59.7376 30.3385 59.0341 31.0407C58.3306 31.7429 57.9334 32.692 57.9334 33.6865V36.9C57.2316 37.3435 56.7654 38.1246 56.7654 39.015C56.7654 40.3975 57.888 41.518 59.2731 41.518C60.6582 41.518 61.7808 40.3975 61.7808 39.015C61.7808 38.1246 61.3146 37.3435 60.6128 36.9V33.6865C60.6128 33.4009 60.7272 33.1321 60.9292 32.9305C61.1312 32.7289 61.4004 32.6147 61.6866 32.6147H64.7076H65.8235C66.1096 32.6147 66.3789 32.7289 66.5808 32.9305C66.7828 33.1321 66.8972 33.4009 66.8972 33.6865V44.3452C66.8972 44.6307 66.7828 44.8995 66.5808 45.1011C66.3789 45.3027 66.1096 45.4169 65.8235 45.4169H64.4568H61.7791H59.4262H54.2375H53.0274H51.5581C51.272 45.4169 51.0027 45.3027 50.8007 45.1011C50.5988 44.8995 50.4843 44.6307 50.4843 44.3452V41.1316C51.1861 40.6881 51.6523 39.907 51.6523 39.0166C51.6523 37.6341 50.5297 36.5137 49.1446 36.5137C47.7595 36.5137 46.6369 37.6341 46.6369 39.0166C46.6369 39.907 47.1031 40.6881 47.8049 41.1316V44.3452C47.8049 45.3396 48.2021 46.2888 48.9056 46.9909C49.6091 47.6931 50.56 48.0896 51.5564 48.0896H53.0257H54.2358H61.7774V51.8407C61.7774 52.1263 61.663 52.3951 61.461 52.5966C61.2591 52.7982 60.9898 52.9125 60.7037 52.9125H56.8647H56.7351H54.0574H53.0257H51.2635C50.8192 52.212 50.0366 51.7466 49.1446 51.7466C47.7595 51.7466 46.6369 52.8671 46.6369 54.2496C46.6369 55.6321 47.7595 56.7526 49.1446 56.7526C50.0366 56.7526 50.8192 56.2873 51.2635 55.5868H53.0223ZM56.7317 55.5868H60.7003C61.6967 55.5868 62.6476 55.1903 63.3511 54.4882C64.0546 53.786 64.4518 52.8369 64.4518 51.8424V48.0913H65.8184C66.8148 48.0913 67.7657 47.6948 68.4692 46.9926C69.1727 46.2904 69.5699 45.3413 69.5699 44.3468V33.6881C69.5699 32.6937 69.1727 31.7445 68.4692 31.0424C67.7657 30.3402 66.8148 29.9437 65.8184 29.9437H64.7026H64.4518V26.1926C64.4518 25.1981 64.0546 24.249 63.3511 23.5468C62.6476 22.8446 61.6967 22.4482 60.7003 22.4482H56.7317V18.5711C56.7317 17.5766 56.3345 16.6275 55.631 15.9253C54.9275 15.2231 53.9766 14.8267 52.9802 14.8267H45.3023C44.3059 14.8267 43.355 15.2231 42.6515 15.9253C41.948 16.6275 41.5508 17.5766 41.5508 18.5711V59.4656C41.5508 60.4601 41.948 61.4092 42.6515 62.1114C43.355 62.8135 44.3059 63.21 45.3023 63.21H52.9802C53.9766 63.21 54.9275 62.8135 55.631 62.1114C56.3345 61.4092 56.7317 60.4601 56.7317 59.4656V55.5868Z" fill="#F36F27"/>
<path id="Vector_3" d="M32.6842 37.2493C34.4935 38.1312 36.5989 37.97 37.7451 37.3535C38.4267 36.9872 38.7599 36.49 38.7364 35.8752L38.7902 35.8735V16.8457C37.4287 14.9038 35.0135 13.7061 32.4166 13.7061C29.2138 13.7061 26.4183 15.5169 25.3748 18.0871C26.1204 18.2148 26.8441 18.4449 27.5156 18.786C27.7176 18.8884 27.9145 18.9993 28.1013 19.1186C29.3333 18.2971 30.8396 17.8822 32.4048 17.946C34.1787 18.0183 35.8129 18.6936 37.0096 19.8476C37.4539 20.276 37.8225 20.7581 38.1036 21.2789L35.4191 22.4027C35.2643 22.1154 35.0606 21.85 34.8149 21.6115C34.1535 20.9731 33.2497 20.6002 32.2702 20.5599C31.4909 20.5296 30.7386 20.7144 30.0991 21.084C30.3818 21.5258 30.6107 21.9995 30.7655 22.5018C31.2486 24.0826 31.0045 25.7322 30.0772 27.1517C29.9897 27.2844 29.8988 27.4137 29.8028 27.538L27.3439 26.0681C27.3995 25.9959 27.4517 25.922 27.5021 25.8464C28.0323 25.0334 28.1737 24.0876 27.896 23.1838C27.62 22.2784 26.9585 21.5224 26.0362 21.0554C25.1695 20.617 24.1563 20.4809 23.1835 20.6708C20.7431 21.3192 19.0281 23.3065 19.0281 25.5961C19.0281 25.8078 19.05 26.0396 19.0954 26.3268L19.2721 27.4389L18.0502 27.7614C14.701 28.6451 12.3633 31.4151 12.3633 34.496C12.3633 36.3388 13.1695 38.0825 14.6337 39.4046L14.7868 39.544C15.4045 39.4701 15.9919 39.2584 16.5019 38.9191C17.2845 38.3966 17.7877 37.639 17.9223 36.7823C17.9728 36.4631 17.9695 36.1423 17.9122 35.8281L20.8474 35.4149C20.9518 35.9844 20.9585 36.5656 20.8676 37.1401C20.6253 38.6873 19.7131 40.0597 18.2976 41.0038C17.1313 41.7832 15.7378 42.1931 14.2988 42.1931C14.1204 42.1931 13.9403 42.1847 13.7602 42.1713C12.8547 43.3321 12.365 44.7045 12.365 46.1391C12.365 48.9882 14.2954 51.5365 17.2811 52.6318L18.5063 53.0803L18.1378 54.2024C18.0048 54.6073 17.9375 55.0172 17.9375 55.4237C17.9375 57.841 20.1709 59.8081 22.9159 59.8081C23.0455 59.8081 23.1869 59.8014 23.3653 59.788L24.0738 59.7326C26.908 59.0505 28.7796 56.5795 28.3167 53.9605C27.9549 51.9044 26.2382 50.2481 23.9459 49.7424L24.6696 47.2042C27.2867 47.782 29.4023 49.3561 30.5114 51.4324C32.2567 50.9586 33.3726 49.4014 33.046 47.7787C32.9821 47.4612 32.8676 47.1571 32.7027 46.8749L35.3501 45.6856C35.648 46.1996 35.8567 46.7506 35.9728 47.3217C36.5703 50.2817 34.5136 53.124 31.3108 53.9538C31.7198 57.411 29.4578 60.6346 25.9285 61.9332C27.423 63.44 29.5874 64.3303 31.9285 64.3303C34.7526 64.3303 37.358 63.0133 38.7936 60.8799V39.8279C37.7855 40.2663 36.6259 40.4864 35.4393 40.4864C34.0104 40.4864 32.5411 40.1706 31.2469 39.5373C29.6564 38.7612 26.9821 36.8226 26.9366 32.5625L29.9089 32.5373C29.9341 35.3259 31.432 36.6395 32.6842 37.2493Z" fill="#1D99D6"/>
</g>
</g>
</svg>
